<svg width="96" height="96" xmlns="http://www.w3.org/2000/svg" xmlns:xlink="http://www.w3.org/1999/xlink" xml:space="preserve" overflow="hidden"><g transform="translate(-720 -461)"><path d="M762 488 778 488 778 485C778 482.8 776.2 481 774 481L732 481C729.8 481 728 482.8 728 485L728 512C728 514.2 729.8 516 732 516L738 516 738 526 748 516 754 516 754 496C754 491.6 757.6 488 762 488Z" fill="#CF4E91"/><path d="M804 492 762 492C759.8 492 758 493.8 758 496L758 523C758 525.2 759.8 527 762 527L788 527 798 537 798 527 804 527C806.2 527 808 525.2 808 523L808 496C808 493.8 806.2 492 804 492Z" fill="#CF4E91"/></g></svg>