<svg width="96" height="96" xmlns="http://www.w3.org/2000/svg" xmlns:xlink="http://www.w3.org/1999/xlink" xml:space="preserve" overflow="hidden"><g transform="translate(-871 -77)"><path d="M949.951 108.757C950.408 110.046 950.683 111.392 950.768 112.757L955 112.757 955 136C954.997 139.312 952.312 141.997 949 142L938.179 142 938.07 154.054C938.031 157.343 935.359 159.991 932.07 160L906 160 906 112.757 922.05 112.757C920.756 111.525 919.568 110.187 918.498 108.757L902 108.757 902 152.348 882.48 146.648 896.46 98.748 917.69 104.948 917.918 104.462C918.438 103.364 919.107 102.343 919.905 101.427L893.741 93.79 877.52 149.37 902 156.515 902 164 933.534 164C938.21 163.991 942.677 162.066 945.894 158.672L954.359 149.709C957.345 146.557 959.007 142.378 959 138.036L959 108.757ZM951.451 146.962 942.985 155.926C942.531 156.398 942.043 156.834 941.523 157.232 941.875 156.221 942.059 155.159 942.07 154.089L942.144 146 949 146C950.307 146 951.602 145.743 952.81 145.242 952.406 145.852 951.951 146.428 951.451 146.962Z" fill="#CF4E91"/><path d="M930.071 113.8 926.938 120.492C926.325 121.729 926.832 123.229 928.069 123.842 929.306 124.454 930.806 123.948 931.419 122.711 931.435 122.678 931.45 122.645 931.465 122.612L934.6 115.921C938.182 117.23 941.992 117.797 945.8 117.587L945.938 117.579C947.361 114.275 946.983 110.471 944.938 107.512L947.993 97.161 950.542 96.772C951.417 96.6386 952.128 95.9961 952.349 95.139L952.941 92.848C953.175 91.9331 952.805 90.9701 952.018 90.448 947.822 87.6843 943.248 85.5437 938.438 84.093 937.532 83.8207 936.552 84.1536 936 84.922L934.621 86.844C934.104 87.562 934.065 88.519 934.521 89.277L935.855 91.484 929.913 100.484C926.33 100.807 923.165 102.951 921.537 106.159 923.828 109.264 926.732 111.865 930.071 113.8Z" fill="#CF4E91"/></g></svg>